<svg width="25" height="25" viewBox="0 0 25 25" fill="none" xmlns="http://www.w3.org/2000/svg">
<path d="M3.34217 0.320435C1.76851 0.320435 0.480469 1.60848 0.480469 3.18214V21.497C0.480469 23.0707 1.76851 24.3587 3.34217 24.3587H21.6571C23.2307 24.3587 24.5188 23.0707 24.5188 21.497V3.18214C24.5188 1.60848 23.2307 0.320435 21.6571 0.320435H3.34217ZM3.34217 1.46512H21.6571C22.612 1.46512 23.3741 2.2272 23.3741 3.18214V21.497C23.3741 22.452 22.612 23.2141 21.6571 23.2141H3.34217C2.38723 23.2141 1.62515 22.452 1.62515 21.497V3.18214C1.62515 2.2272 2.38723 1.46512 3.34217 1.46512ZM6.20387 4.33353C5.57703 4.33353 5.01296 4.52089 4.59528 4.87233C4.17761 5.22377 3.92122 5.7488 3.92122 6.31101C3.92122 7.37967 4.84816 8.21279 6.02725 8.29519L6.02949 8.29631C6.08567 8.31546 6.14452 8.32565 6.20387 8.32649C7.50481 8.32649 8.48653 7.41521 8.48653 6.31101C8.48642 6.30094 8.48605 6.29087 8.48541 6.28082C8.42717 5.19324 7.45755 4.33353 6.20387 4.33353ZM6.20387 5.46479C7.0007 5.46479 7.31534 5.82065 7.34967 6.32554C7.34272 6.8156 7.03954 7.19523 6.20387 7.19523C5.41095 7.19523 5.05249 6.78916 5.05249 6.31101C5.05249 6.07193 5.13972 5.89177 5.32301 5.73755C5.50629 5.58333 5.8005 5.46479 6.20387 5.46479ZM4.48685 8.90554C4.33506 8.90556 4.18949 8.96586 4.08216 9.07319C3.97483 9.18053 3.91453 9.32609 3.91451 9.47788V20.3524C3.91453 20.5041 3.97483 20.6497 4.08216 20.757C4.18949 20.8644 4.33506 20.9247 4.48685 20.9247H7.9209C8.07268 20.9247 8.21825 20.8644 8.32558 20.757C8.43292 20.6497 8.49322 20.5041 8.49324 20.3524V16.9954V9.47788C8.49322 9.32609 8.43292 9.18053 8.32558 9.07319C8.21825 8.96586 8.07268 8.90556 7.9209 8.90554H4.48685ZM9.63792 8.90554C9.48613 8.90556 9.34056 8.96586 9.23323 9.07319C9.1259 9.18053 9.06559 9.32609 9.06558 9.47788V20.3524C9.06559 20.5041 9.1259 20.6497 9.23323 20.757C9.34056 20.8644 9.48613 20.9247 9.63792 20.9247H13.072C13.2237 20.9247 13.3693 20.8644 13.4766 20.757C13.584 20.6497 13.6443 20.5041 13.6443 20.3524V14.6289C13.6443 14.1541 13.7739 13.6817 14.002 13.3725C14.2302 13.0632 14.518 12.8776 15.0651 12.8873C15.6293 12.897 15.9279 13.0903 16.1539 13.3937C16.3798 13.6971 16.506 14.152 16.506 14.6289V20.3524C16.506 20.5041 16.5663 20.6497 16.6737 20.757C16.781 20.8644 16.9266 20.9247 17.0783 20.9247H20.5124C20.6642 20.9247 20.8097 20.8644 20.9171 20.757C21.0244 20.6497 21.0847 20.5041 21.0847 20.3524V14.2064C21.0847 12.5114 20.5827 11.1688 19.7221 10.2604C18.8615 9.35199 17.6645 8.90554 16.3987 8.90554C15.1956 8.90554 14.2801 9.30898 13.6443 9.72046V9.47788C13.6443 9.32609 13.584 9.18053 13.4766 9.07319C13.3693 8.96586 13.2237 8.90556 13.072 8.90554H9.63792ZM5.05919 10.0502H7.34855V16.9954V19.78H5.05919V10.0502ZM10.2103 10.0502H12.4996V10.9434C12.4997 11.0634 12.5374 11.1804 12.6075 11.2777C12.6777 11.3751 12.7767 11.448 12.8905 11.4861C13.0043 11.5241 13.1272 11.5255 13.2418 11.4899C13.3564 11.4543 13.4569 11.3835 13.5292 11.2877C13.5292 11.2877 14.4279 10.0502 16.3987 10.0502C17.4022 10.0502 18.2627 10.3837 18.8915 11.0473C19.5203 11.711 19.94 12.7335 19.94 14.2064V19.78H17.6507V14.6289C17.6507 13.9612 17.4907 13.2708 17.0728 12.7096C16.6548 12.1483 15.9519 11.7576 15.0852 11.7427C14.2141 11.7272 13.4998 12.1261 13.0809 12.6939C12.662 13.2618 12.4996 13.9591 12.4996 14.6289V19.78H10.2103V10.0502Z" fill="white"/>
</svg>
