<svg width="25" height="25" viewBox="0 0 25 25" fill="none" xmlns="http://www.w3.org/2000/svg">
<path d="M12.4996 0.320435C9.23792 0.320435 8.82777 0.335459 7.54623 0.392549C6.26469 0.452645 5.39179 0.653966 4.62708 0.95144C3.82456 1.25241 3.09785 1.72577 2.49818 2.33815C1.88581 2.93782 1.41244 3.66453 1.11147 4.46704C0.814 5.23026 0.611177 6.10465 0.552584 7.38169C0.495493 8.66623 0.480469 9.07488 0.480469 12.3411C0.480469 15.6043 0.495493 16.0129 0.552584 17.2945C0.612679 18.5745 0.814 19.4474 1.11147 20.2121C1.41946 21.0024 1.82962 21.6725 2.49818 22.341C3.16525 23.0096 3.83531 23.4212 4.62557 23.7277C5.39179 24.0252 6.26318 24.228 7.54322 24.2866C8.82627 24.3437 9.23492 24.3587 12.4996 24.3587C15.7643 24.3587 16.1715 24.3437 17.4545 24.2866C18.7331 24.2265 19.6089 24.0252 20.3737 23.7277C21.1756 23.4266 21.9018 22.9532 22.5011 22.341C23.1696 21.6725 23.5798 21.0024 23.8878 20.2121C24.1837 19.4474 24.3866 18.5745 24.4467 17.2945C24.5037 16.0129 24.5188 15.6043 24.5188 12.3396C24.5188 9.07488 24.5037 8.66623 24.4467 7.38319C24.3866 6.10465 24.1837 5.23026 23.8878 4.46704C23.5868 3.66453 23.1134 2.93782 22.5011 2.33815C21.9014 1.72577 21.1747 1.25241 20.3722 0.95144C19.6059 0.653966 18.7315 0.451143 17.453 0.392549C16.17 0.335459 15.7628 0.320435 12.4966 0.320435H12.4996ZM11.4224 2.48689H12.5011C15.7102 2.48689 16.0903 2.4974 17.3569 2.556C18.5287 2.60858 19.1657 2.80539 19.5894 2.96915C20.1498 3.187 20.5509 3.44842 20.9716 3.86909C21.3923 4.28976 21.6522 4.6894 21.8701 5.25129C22.0353 5.67346 22.2306 6.31048 22.2832 7.48235C22.3418 8.74886 22.3538 9.12897 22.3538 12.3366C22.3538 15.5442 22.3418 15.9258 22.2832 17.1923C22.2306 18.3642 22.0338 18.9997 21.8701 19.4234C21.676 19.9446 21.3686 20.4161 20.9701 20.8041C20.5494 21.2247 20.1498 21.4847 19.5879 21.7025C19.1672 21.8678 18.5302 22.0631 17.3569 22.1172C16.0903 22.1743 15.7102 22.1878 12.5011 22.1878C9.29201 22.1878 8.9104 22.1743 7.64388 22.1172C6.47202 22.0631 5.8365 21.8678 5.41283 21.7025C4.89125 21.5091 4.41914 21.2022 4.03063 20.8041C3.6314 20.4159 3.32349 19.9437 3.12919 19.4219C2.96543 18.9997 2.76861 18.3627 2.71603 17.1908C2.65894 15.9243 2.64692 15.5442 2.64692 12.3336C2.64692 9.12296 2.65894 8.74586 2.71603 7.47934C2.77012 6.30747 2.96543 5.67046 3.13069 5.24678C3.34854 4.68639 3.60995 4.28525 4.03063 3.86458C4.4513 3.44391 4.85093 3.184 5.41283 2.96615C5.8365 2.80089 6.47202 2.60558 7.64388 2.55149C8.75265 2.50041 9.18233 2.48538 11.4224 2.48388V2.48689ZM18.9163 4.48207C18.7269 4.48207 18.5394 4.51937 18.3644 4.59185C18.1894 4.66434 18.0304 4.77057 17.8965 4.9045C17.7626 5.03843 17.6563 5.19743 17.5838 5.37242C17.5114 5.54741 17.474 5.73496 17.474 5.92436C17.474 6.11377 17.5114 6.30132 17.5838 6.47631C17.6563 6.65129 17.7626 6.81029 17.8965 6.94422C18.0304 7.07815 18.1894 7.18439 18.3644 7.25687C18.5394 7.32936 18.7269 7.36666 18.9163 7.36666C19.2989 7.36666 19.6657 7.21471 19.9362 6.94422C20.2067 6.67374 20.3586 6.30688 20.3586 5.92436C20.3586 5.54184 20.2067 5.17499 19.9362 4.9045C19.6657 4.63402 19.2989 4.48207 18.9163 4.48207ZM12.5011 6.16775C11.6824 6.15498 10.8694 6.3052 10.1093 6.60967C9.34919 6.91414 8.65727 7.36677 8.07379 7.94121C7.49032 8.51566 7.02695 9.20043 6.71066 9.95568C6.39437 10.7109 6.23148 11.5215 6.23148 12.3403C6.23148 13.1591 6.39437 13.9698 6.71066 14.725C7.02695 15.4802 7.49032 16.165 8.07379 16.7395C8.65727 17.3139 9.34919 17.7665 10.1093 18.071C10.8694 18.3755 11.6824 18.5257 12.5011 18.5129C14.1215 18.4876 15.667 17.8262 16.8039 16.6714C17.9409 15.5165 18.5782 13.9609 18.5782 12.3403C18.5782 10.7197 17.9409 9.16414 16.8039 8.00931C15.667 6.85448 14.1215 6.19303 12.5011 6.16775ZM12.5011 8.3327C13.0273 8.3327 13.5484 8.43634 14.0345 8.63771C14.5206 8.83907 14.9623 9.13422 15.3344 9.50629C15.7065 9.87836 16.0016 10.3201 16.203 10.8062C16.4044 11.2924 16.508 11.8134 16.508 12.3396C16.508 12.8658 16.4044 13.3868 16.203 13.873C16.0016 14.3591 15.7065 14.8008 15.3344 15.1729C14.9623 15.545 14.5206 15.8401 14.0345 16.0415C13.5484 16.2428 13.0273 16.3465 12.5011 16.3465C11.4384 16.3465 10.4193 15.9243 9.66783 15.1729C8.91639 14.4214 8.49424 13.4023 8.49424 12.3396C8.49424 11.2769 8.91639 10.2577 9.66783 9.50629C10.4193 8.75485 11.4384 8.3327 12.5011 8.3327Z" fill="white"/>
</svg>
